<svg id="dram_logo-01" xmlns="http://www.w3.org/2000/svg" width="285.06" height="78.747" viewBox="0 0 285.06 78.747">
  <path id="Tracciato_39" data-name="Tracciato 39" d="M246.257,305.615c-1.215-1.12-2.545-2.1-3.83-3.145a.262.262,0,0,0-.14.045v3.615a4.335,4.335,0,0,0,1.055,3c1.29,1.29,2.72,2.445,4.09,3.66l.19-.17c0-1.18.025-2.365,0-3.545a4.71,4.71,0,0,0-1.365-3.46Z" transform="translate(-200.787 -251.138)" fill="#3958ff"/>
  <path id="Tracciato_40" data-name="Tracciato 40" d="M262.455,310.8a.72.72,0,0,0,.22-.5V304.45c-4.285,2.935-4.13,4.18-3.88,9.325C260.055,312.765,261.26,311.79,262.455,310.8Z" transform="translate(-208.99 -252.129)" fill="#3958ff"/>
  <path id="Tracciato_41" data-name="Tracciato 41" d="M246.309,325.525c-1.235-1.16-2.57-2.21-3.865-3.3l-.175.115v3.33a5.5,5.5,0,0,0,2.22,4.54c.875.685,1.735,1.39,2.61,2.075a3.379,3.379,0,0,0,.45.275c0-1.455.04-2.845,0-4.235a4,4,0,0,0-1.24-2.795Z" transform="translate(-200.779 -261.013)" fill="#3958ff"/>
  <path id="Tracciato_42" data-name="Tracciato 42" d="M262.795,325.94c-.1-.44-.145-.9-.2-1.26-4,1.865-4.32,5.31-3.83,9.15,1.125-.895,2.235-1.74,3.29-2.65a7.779,7.779,0,0,0,1.15-1.335,1.715,1.715,0,0,0,.17-2.025A8.136,8.136,0,0,1,262.795,325.94Z" transform="translate(-208.94 -262.243)" fill="#3958ff"/>
  <path id="Tracciato_43" data-name="Tracciato 43" d="M271.655,342.42c-1.775-1.385-3.53-2.8-5.29-4.2-.165-.13-.34-.245-.5-.375-1.715,2.53-4.34,4-6.56,5.88a1.335,1.335,0,0,0-.57,1.19c.045.8.025,1.615,0,2.42a1.26,1.26,0,0,1-.025.24h13.44v-4.14A1.12,1.12,0,0,0,271.655,342.42Z" transform="translate(-209 -268.823)" fill="#3958ff"/>
  <path id="Tracciato_44" data-name="Tracciato 44" d="M325.19,325.5a4.395,4.395,0,0,0-1.18,2.355,40.913,40.913,0,0,0-.055,4.79c1.335-1.125,2.7-2.14,3.88-3.335a4.18,4.18,0,0,0,1.16-2.285,41.788,41.788,0,0,0,.055-4.835C327.74,323.29,326.37,324.3,325.19,325.5Z" transform="translate(-241.6 -260.998)" fill="#3958ff"/>
  <path id="Tracciato_45" data-name="Tracciato 45" d="M274.34,277.445c1.46,1.265,3,2.45,4.615,3.775v-4.7a6.385,6.385,0,0,0-2.27-5.07c-1.255-1.085-2.525-2.155-3.79-3.225a4.12,4.12,0,0,0-.5-.33c0,1.915-.07,3.74.025,5.56a5.55,5.55,0,0,0,1.92,3.995Z" transform="translate(-215.83 -233.848)" fill="#3958ff"/>
  <path id="Tracciato_46" data-name="Tracciato 46" d="M304.569,344.79a1.5,1.5,0,0,0-.47-.92c-1.365-1.14-2.8-2.2-4.15-3.35-.895-.765-1.69-1.64-2.595-2.53a50.888,50.888,0,0,1-4.125,3.225,4.118,4.118,0,0,0-2.065,4.275c.06.71.08,1.425.085,2.14h13.37a1.356,1.356,0,0,1,0-.205C304.569,346.545,304.619,345.665,304.569,344.79Z" transform="translate(-225.213 -268.898)" fill="#3958ff"/>
  <path id="Tracciato_47" data-name="Tracciato 47" d="M327.615,309.59a4.91,4.91,0,0,0,1.315-2.5,35.282,35.282,0,0,0,.055-4.73c-1.115.895-2.215,1.75-3.285,2.64a5,5,0,0,0-1.89,3.68c-.055,1.18-.04,2.365-.05,3.545a4.407,4.407,0,0,0,.09.565,46.963,46.963,0,0,0,3.765-3.2Z" transform="translate(-241.525 -251.083)" fill="#3958ff"/>
  <path id="Tracciato_48" data-name="Tracciato 48" d="M277.094,295.205c-1.465-1.3-3-2.5-4.69-3.855v4.74a5.62,5.62,0,0,0,1.61,4.2c1.5,1.44,3.2,2.705,4.835,4.08,0-2,.075-3.89-.025-5.765A4.87,4.87,0,0,0,277.094,295.205Z" transform="translate(-215.844 -245.578)" fill="#3958ff"/>
  <path id="Tracciato_49" data-name="Tracciato 49" d="M309.292,324.65a18.659,18.659,0,0,1-.895,3.135,1.95,1.95,0,0,0,.25,2.21,5.77,5.77,0,0,0,.92,1.075c1.105.925,2.245,1.81,3.5,2.835,0-1.225-.04-2.285,0-3.34C313.232,327.645,311.4,326.045,309.292,324.65Z" transform="translate(-233.727 -262.228)" fill="#3958ff"/>
  <path id="Tracciato_50" data-name="Tracciato 50" d="M310.2,304.58v5.84a.815.815,0,0,0,.26.545c1.155.96,2.335,1.895,3.55,2.865C314.265,308.79,314.43,307.445,310.2,304.58Z" transform="translate(-234.745 -252.194)" fill="#3958ff"/>
  <path id="Tracciato_51" data-name="Tracciato 51" d="M293.07,318.355a5.14,5.14,0,0,0-1.715,3.565c-.1,1.63-.075,3.265-.1,4.9,0,.17.035.345.07.65,1.63-1.34,3.2-2.555,4.685-3.87a4.71,4.71,0,0,0,1.635-3.075c.17-1.95.17-3.915.245-5.87l-.23-.1C296.125,315.82,294.545,317.03,293.07,318.355Z" transform="translate(-225.27 -257.183)" fill="#3958ff"/>
  <path id="Tracciato_52" data-name="Tracciato 52" d="M295.955,300.725a4.76,4.76,0,0,0,1.68-3.125c.175-1.95.17-3.915.245-5.875l-.23-.075c-1.5,1.22-3.05,2.39-4.5,3.675a5.24,5.24,0,0,0-1.8,3.61c-.1,1.65-.085,3.31-.115,4.965,0,.175.035.345.065.645C292.925,303.225,294.48,302.02,295.955,300.725Z" transform="translate(-225.265 -245.728)" fill="#3958ff"/>
  <path id="Tracciato_53" data-name="Tracciato 53" d="M277.157,318.2c-1.465-1.34-3.055-2.54-4.75-3.94v4.5a6.53,6.53,0,0,0,2.6,5.43l3.45,2.745c.135.105.3.19.5.335v-4.71a5.755,5.755,0,0,0-1.8-4.36Z" transform="translate(-215.846 -257.033)" fill="#3958ff"/>
  <path id="Tracciato_54" data-name="Tracciato 54" d="M296.4,276.765a4.18,4.18,0,0,0,1.1-2.4c.19-2.065.13-4.155.165-6.235,0-.025-.065-.05-.14-.1-1.5,1.29-3,2.57-4.5,3.9a4.465,4.465,0,0,0-1.6,2.785c-.23,2.12-.28,4.26-.4,6.4l.315.15C293.035,279.77,294.8,278.355,296.4,276.765Z" transform="translate(-225.155 -233.919)" fill="#3958ff"/>
  <path id="Tracciato_55" data-name="Tracciato 55" d="M254.43,223.523a32.375,32.375,0,0,0-63.57,8.665q0,.715.03,1.41a23.583,23.583,0,0,0-31.6,21.37v.885c.055,12.615,10.59,22.685,23.2,22.685h23.69a1.715,1.715,0,0,1,0-.235c0-.875.025-1.755-.03-2.63a1.265,1.265,0,0,0-.4-.82c-1.54-1.265-3.115-2.5-4.665-3.74a8.07,8.07,0,0,1-3.13-6.56v-16.16a1.629,1.629,0,0,1,.81-1.675,1.68,1.68,0,0,1,1.875.43c1.66,1.34,3.335,2.665,5,4,.13.1.265.185.53.375v-8.675c0-.94.43-1.5,1.17-1.615a1.435,1.435,0,0,1,1.695,1.6v8.695c.3-.225.5-.38.725-.545.89-.71,1.765-1.44,2.675-2.12a1.31,1.31,0,0,0,.585-1.19q0-8.153,0-16.3v-.71a1.42,1.42,0,0,1,2.31-1.105c2.44,2.07,4.88,4.15,7.3,6.25a13.619,13.619,0,0,1,1.23,1.415c2.525-2.91,5.675-5.1,8.525-7.62a1.414,1.414,0,0,1,2.37,1,5.86,5.86,0,0,1,.025.785v16.3a1.38,1.38,0,0,0,.605,1.25c1.08.8,2.12,1.67,3.315,2.625v-8.68a1.476,1.476,0,0,1,1.09-1.625,1.423,1.423,0,0,1,1.77,1.56v8.75c.475-.375.825-.64,1.17-.915,1.5-1.185,2.97-2.365,4.445-3.555a1.552,1.552,0,0,1,1.76-.385,1.623,1.623,0,0,1,.845,1.66v16.16a8.125,8.125,0,0,1-3.16,6.62c-1.5,1.22-3.03,2.44-4.565,3.635a1.085,1.085,0,0,0-.5,1c.04.85.03,1.71,0,2.56a1.292,1.292,0,0,1,0,.2h15.5a21.74,21.74,0,0,0,13.365-4.5,28.245,28.245,0,0,0-15.915-50.5Zm-37.34-.305a1.42,1.42,0,0,1-2.825-.11c-.03-.5,0-1,0-1.5s-.025-.945,0-1.415a1.42,1.42,0,0,1,2.825-.1,24.906,24.906,0,0,1,0,3.125Zm6.785,7.185a1.5,1.5,0,0,1-1.455-1.445,1.42,1.42,0,0,1,1.465-1.41,1.385,1.385,0,0,1,1.37,1.42,1.44,1.44,0,0,1-1.38,1.435Zm1.39-7.955a1.4,1.4,0,0,1-1.435,1.58,1.432,1.432,0,0,1-1.415-1.61v-8.59a1.422,1.422,0,0,1,1.415-1.61,1.4,1.4,0,0,1,1.435,1.57v4.4c0,1.465.01,2.82,0,4.24Z" transform="translate(-159.29 -199.807)" fill="#3958ff"/>
  <text id="D_R_E_A_M" data-name="D R E A M" transform="translate(129.06 48.317)" fill="#3958ff" font-size="35" font-family="ProximaNova-Semibold, Proxima Nova" font-weight="600"><tspan x="0" y="0">D R E A M</tspan></text>
</svg>
